<svg width="10" height="16" viewBox="0 0 10 16" fill="none" xmlns="http://www.w3.org/2000/svg">
<path d="M0 0.726524C0 0.326093 0.324613 0.0014801 0.725044 0.0014801H9.06305C9.46348 0.0014801 9.7881 0.326093 9.7881 0.726524V13.0523C9.7881 13.4527 9.46348 13.7773 9.06305 13.7773H0.725044C0.324614 13.7773 0 13.4527 0 13.0523V0.726524Z" fill="#282828"/>
<path d="M2.90021 2.72907C2.90021 2.42531 3.08956 2.15375 3.3746 2.04874L8.81243 0.0453232C9.28578 -0.129068 9.78813 0.221212 9.78813 0.725664V13.2709C9.78813 13.5747 9.59877 13.8462 9.31374 13.9512L3.8759 15.9547C3.40255 16.129 2.90021 15.7788 2.90021 15.2743V2.72907Z" fill="#FFCC00"/>
</svg>
