<svg width="62" height="43" viewBox="0 0 62 43" fill="none" xmlns="http://www.w3.org/2000/svg">
<path opacity="0.1" d="M60.8077 28.3053L56.2769 32.8823H56.1577L56.0385 32.7619V27.3417L60.8077 22.5238V28.3053Z" fill="#FFCC00"/>
<path opacity="0.1" d="M34.4577 25.2941C34.3385 25.535 34.2192 25.6555 33.9808 25.8964C33.1462 26.7395 32.0731 27.3417 31 27.4622C30.8808 27.4622 30.7615 27.4622 30.6423 27.4622H16.6923C10.85 27.4622 6.08078 22.6443 5.96155 16.7423C5.96155 16.6218 5.96155 16.6218 5.96155 16.5014C5.96155 13.4902 7.15386 10.8403 8.94232 8.91316C8.94232 8.91316 8.94232 8.91316 8.94232 8.79272L10.0154 7.70868C11.8039 6.2633 13.95 5.42017 16.3346 5.42017C19.3154 5.42017 21.7 6.62465 23.6077 8.55182L33.8615 18.7899C35.2923 20.1148 35.65 22.2829 34.9346 24.0896C34.9346 24.451 34.6962 24.9328 34.4577 25.2941ZM22.6539 16.2605C22.6539 12.888 20.0308 10.2381 16.6923 10.2381C13.3539 10.2381 10.7308 12.888 10.7308 16.2605C10.7308 19.633 13.3539 22.2829 16.6923 22.2829C20.0308 22.2829 22.6539 19.633 22.6539 16.2605Z" fill="#FFCC00"/>
<path d="M16.6923 22.2829C19.9848 22.2829 22.6538 19.5865 22.6538 16.2604C22.6538 12.9344 19.9848 10.238 16.6923 10.238C13.3998 10.238 10.7308 12.9344 10.7308 16.2604C10.7308 19.5865 13.3998 22.2829 16.6923 22.2829Z" stroke="#FFCC00" stroke-width="2" stroke-miterlimit="10" stroke-linecap="round" stroke-linejoin="round"/>
<path d="M9.6577 7.94954C9.89616 7.70865 10.0154 7.70865 10.1346 7.5882C11.9231 6.14282 14.0692 5.29968 16.4539 5.29968C19.4346 5.29968 21.8192 6.50416 23.7269 8.43133L33.9808 18.6694C35.4115 19.9944 35.7692 22.1624 35.0539 23.9691C34.9346 24.3305 34.6962 24.6918 34.4577 25.0532C34.3385 25.2941 34.2192 25.4145 33.9808 25.6554C33.1462 26.4986 32.0731 27.1008 31 27.2213C30.8808 27.2213 30.7615 27.2213 30.6423 27.2213H16.6923C10.85 27.2213 6.08078 22.4033 5.96155 16.5014C5.96155 16.3809 5.96155 16.3809 5.96155 16.2605C5.96155 13.2493 7.15386 10.5994 8.94232 8.67223C8.94232 8.67223 8.94232 8.67223 8.94232 8.55178" stroke="#FFCC00" stroke-width="2" stroke-miterlimit="10" stroke-linecap="round" stroke-linejoin="round"/>
<path d="M38.2731 21.4398L37.2 22.5239L34.4577 25.2942L33.9808 25.6555" stroke="#FFCC00" stroke-width="2" stroke-miterlimit="10" stroke-linecap="round" stroke-linejoin="round"/>
<path d="M36.9616 22.5238H37.2H60.8077L56.1503 27.2288H31.1118" stroke="#FFCC00" stroke-width="2" stroke-miterlimit="10" stroke-linecap="round" stroke-linejoin="round"/>
<path d="M56.0385 27.3417V32.7619C56.0385 32.7619 56.0385 32.8823 56.1577 32.8823C56.2769 32.8823 56.2769 32.8823 56.2769 32.8823L60.8077 28.3053V22.5238" stroke="#FFCC00" stroke-width="2" stroke-miterlimit="10" stroke-linecap="round" stroke-linejoin="round"/>
<path d="M1.19232 26.1372V21.0784C1.19232 18.4285 3.33848 16.6218 5.96155 16.6218" stroke="#FFCC00" stroke-width="2" stroke-miterlimit="10" stroke-linecap="round" stroke-linejoin="round"/>
<path d="M1.19232 29.7507V36.7367C1.19232 39.3866 3.33848 41.7955 5.96155 41.7955H25.0385C27.0654 41.7955 28.6154 40.2297 28.6154 38.1821C28.6154 36.1345 27.0654 34.5687 25.0385 34.5687H5.96155C3.33848 34.5687 1.19232 32.4006 1.19232 29.7507Z" stroke="#FFCC00" stroke-width="2" stroke-miterlimit="10" stroke-linecap="round" stroke-linejoin="round"/>
<path d="M1.19232 26.1372V29.7507" stroke="#FFCC00" stroke-width="2" stroke-miterlimit="10" stroke-linecap="round" stroke-linejoin="round"/>
<path d="M38.2731 27.1008L39.4654 25.8964" stroke="#FFCC00" stroke-width="2" stroke-miterlimit="10" stroke-linecap="round" stroke-linejoin="round"/>
<path d="M42.9231 27.1008L44.1154 25.8964" stroke="#FFCC00" stroke-width="2" stroke-miterlimit="10" stroke-linecap="round" stroke-linejoin="round"/>
<path d="M47.6923 27.1008L49.1231 25.7759" stroke="#FFCC00" stroke-width="2" stroke-miterlimit="10" stroke-linecap="round" stroke-linejoin="round"/>
<path d="M52.4615 27.1008L53.8923 25.7759" stroke="#FFCC00" stroke-width="2" stroke-miterlimit="10" stroke-linecap="round" stroke-linejoin="round"/>
<path d="M9.06152 8.67225L10.1346 7.58822L13.2346 4.33612C14.1884 3.13164 15.3808 2.2885 16.5731 1.80671C17.7654 1.44536 19.1961 1.20447 20.6269 1.20447C23.6077 1.20447 25.9923 2.40895 27.9 4.33612L38.1538 14.5742C39.5846 15.8991 39.9423 18.0672 39.2269 19.8739C38.9885 20.4762 38.6308 20.958 38.1538 21.4398" stroke="#FFCC00" stroke-width="2" stroke-miterlimit="10" stroke-linecap="round" stroke-linejoin="round"/>
</svg>
