<svg width="56" height="56" viewBox="0 0 56 56" fill="none" xmlns="http://www.w3.org/2000/svg">
<circle cx="28" cy="28" r="27" stroke="#FFCC00" stroke-width="2"/>
<circle cx="28" cy="28" r="23" fill="#FFCC00" fill-opacity="0.1" stroke="#FFCC00" stroke-width="2"/>
<path d="M34.5 18.5L18.5 34.5L21.5 37.5L37.5 21.5L34.5 18.5Z" fill="white"/>
<path d="M18.5 34.5L17.7929 33.7929C17.4024 34.1834 17.4024 34.8166 17.7929 35.2071L18.5 34.5ZM34.5 18.5L35.2071 17.7929C34.8166 17.4024 34.1834 17.4024 33.7929 17.7929L34.5 18.5ZM21.5 37.5L20.7929 38.2071C21.1834 38.5976 21.8166 38.5976 22.2071 38.2071L21.5 37.5ZM37.5 21.5L38.2071 22.2071C38.5976 21.8166 38.5976 21.1834 38.2071 20.7929L37.5 21.5ZM19.2071 35.2071L35.2071 19.2071L33.7929 17.7929L17.7929 33.7929L19.2071 35.2071ZM17.7929 35.2071L20.7929 38.2071L22.2071 36.7929L19.2071 33.7929L17.7929 35.2071ZM22.2071 38.2071L38.2071 22.2071L36.7929 20.7929L20.7929 36.7929L22.2071 38.2071ZM38.2071 20.7929L35.2071 17.7929L33.7929 19.2071L36.7929 22.2071L38.2071 20.7929Z" fill="#FFCC00"/>
<circle cx="21.5" cy="21.5" r="2.5" fill="white" stroke="#FFCC00" stroke-width="2"/>
<circle cx="34.5" cy="34.5" r="2.5" fill="white" stroke="#FFCC00" stroke-width="2"/>
</svg>
