<svg width="56" height="55" viewBox="0 0 56 55" fill="none" xmlns="http://www.w3.org/2000/svg">
<path opacity="0.1" d="M55 11V44L28 54L1 44V11L28 1L55 11Z" fill="#FFCC00"/>
<path d="M38 17.5L32 15L39 12L45 14.5V27L41.5 24.5L38 28V17.5Z" fill="white"/>
<path d="M20 40L6 35V40L20 45V40Z" fill="white"/>
<path d="M1 11L0.652686 10.0623C0.260395 10.2075 0 10.5817 0 11H1ZM55 11H56C56 10.5817 55.7396 10.2075 55.3473 10.0623L55 11ZM55 44L55.3473 44.9377C55.7396 44.7925 56 44.4183 56 44H55ZM1 44H0C0 44.4183 0.260395 44.7925 0.652686 44.9377L1 44ZM28 54L27.6527 54.9377C27.8768 55.0208 28.1232 55.0208 28.3473 54.9377L28 54ZM28 1L28.3473 0.0622512C28.1232 -0.0207504 27.8768 -0.0207504 27.6527 0.0622512L28 1ZM38 17.2963H39C39 16.8819 38.7444 16.5105 38.3574 16.3624L38 17.2963ZM38 29H37C37 29.4045 37.2436 29.7691 37.6173 29.9239C37.991 30.0787 38.4211 29.9931 38.7071 29.7071L38 29ZM42 25L42.5547 24.1679C42.1581 23.9035 41.63 23.9558 41.2929 24.2929L42 25ZM45 27L44.4453 27.8321C44.7522 28.0366 45.1467 28.0557 45.4719 27.8817C45.797 27.7077 46 27.3688 46 27H45ZM32 15L31.6061 14.0809C31.2318 14.2413 30.9922 14.6126 31.0002 15.0197C31.0082 15.4268 31.2623 15.7884 31.6426 15.9339L32 15ZM39 12L39.4108 11.0883C39.1555 10.9732 38.8635 10.9705 38.6061 11.0809L39 12ZM6 35L6.33634 34.0583C6.03008 33.9489 5.68977 33.9953 5.42395 34.1826C5.15813 34.3699 5 34.6748 5 35H6ZM6 40H5C5 40.4226 5.26567 40.7996 5.66366 40.9417L6 40ZM20 45L19.6637 45.9417C19.9699 46.0511 20.3102 46.0047 20.576 45.8174C20.8419 45.6301 21 45.3252 21 45H20ZM20 40H21C21 39.5774 20.7343 39.2004 20.3363 39.0583L20 40ZM6.33282 28.057C5.81202 27.8732 5.24082 28.1464 5.05701 28.6672C4.8732 29.188 5.14638 29.7592 5.66718 29.943L6.33282 28.057ZM14.1672 32.943C14.688 33.1268 15.2592 32.8536 15.443 32.3328C15.6268 31.812 15.3536 31.2408 14.8328 31.057L14.1672 32.943ZM54 11V44H56V11H54ZM2 44V11H0V44H2ZM0.652686 11.9377L27.6527 21.9377L28.3473 20.0623L1.34731 10.0623L0.652686 11.9377ZM54.6527 43.0623L27.6527 53.0623L28.3473 54.9377L55.3473 44.9377L54.6527 43.0623ZM28.3473 53.0623L1.34731 43.0623L0.652686 44.9377L27.6527 54.9377L28.3473 53.0623ZM27 21V54H29V21H27ZM1.34731 11.9377L28.3473 1.93775L27.6527 0.0622512L0.652686 10.0623L1.34731 11.9377ZM27.6527 1.93775L54.6527 11.9377L55.3473 10.0623L28.3473 0.0622512L27.6527 1.93775ZM28.3473 21.9377L38.3473 18.234L37.6527 16.3585L27.6527 20.0623L28.3473 21.9377ZM37 17.2963V29H39V17.2963H37ZM38.7071 29.7071L42.7071 25.7071L41.2929 24.2929L37.2929 28.2929L38.7071 29.7071ZM41.4453 25.8321L44.4453 27.8321L45.5547 26.1679L42.5547 24.1679L41.4453 25.8321ZM45.3473 15.6415L55.3473 11.9377L54.6527 10.0623L44.6527 13.766L45.3473 15.6415ZM46 27V14.7037H44V27H46ZM38.3574 16.3624L32.3574 14.0661L31.6426 15.9339L37.6426 18.2302L38.3574 16.3624ZM32.3939 15.9191L39.3939 12.9191L38.6061 11.0809L31.6061 14.0809L32.3939 15.9191ZM38.5892 12.9117L44.5892 15.6154L45.4108 13.792L39.4108 11.0883L38.5892 12.9117ZM5 35V40H7V35H5ZM5.66366 40.9417L19.6637 45.9417L20.3363 44.0583L6.33634 39.0583L5.66366 40.9417ZM21 45V40H19V45H21ZM20.3363 39.0583L6.33634 34.0583L5.66366 35.9417L19.6637 40.9417L20.3363 39.0583ZM14.8328 31.057L6.33282 28.057L5.66718 29.943L14.1672 32.943L14.8328 31.057Z" fill="#FFCC00"/>
</svg>
