<svg width="51" height="56" viewBox="0 0 51 56" fill="none" xmlns="http://www.w3.org/2000/svg">
<path opacity="0.1" d="M1 1H38V16C34 16 26 18.6 26 29C26 32.7462 28.0328 35.4371 31 37.339V47H1V1Z" fill="#FFCC00"/>
<path d="M1 1V0C0.447715 0 0 0.447715 0 1L1 1ZM38 1H39C39 0.447715 38.5523 0 38 0V1ZM1 47H0C0 47.5523 0.447715 48 1 48L1 47ZM31 55H30C30 55.3746 30.2093 55.7178 30.5424 55.8892C30.8755 56.0606 31.2764 56.0315 31.5812 55.8137L31 55ZM45 55L44.4188 55.8137C44.7236 56.0315 45.1245 56.0606 45.4576 55.8892C45.7907 55.7178 46 55.3746 46 55H45ZM38 50L38.5812 49.1863C38.2335 48.9379 37.7665 48.9379 37.4188 49.1863L38 50ZM34.7071 27.2929C34.3166 26.9024 33.6834 26.9024 33.2929 27.2929C32.9024 27.6834 32.9024 28.3166 33.2929 28.7071L34.7071 27.2929ZM37 31L36.2929 31.7071C36.6834 32.0976 37.3166 32.0976 37.7071 31.7071L37 31ZM43.7071 25.7071C44.0976 25.3166 44.0976 24.6834 43.7071 24.2929C43.3166 23.9024 42.6834 23.9024 42.2929 24.2929L43.7071 25.7071ZM8 7C7.44772 7 7 7.44772 7 8C7 8.55228 7.44772 9 8 9V7ZM25 9C25.5523 9 26 8.55228 26 8C26 7.44772 25.5523 7 25 7V9ZM8 12C7.44772 12 7 12.4477 7 13C7 13.5523 7.44772 14 8 14V12ZM25 14C25.5523 14 26 13.5523 26 13C26 12.4477 25.5523 12 25 12V14ZM8 17C7.44772 17 7 17.4477 7 18C7 18.5523 7.44772 19 8 19V17ZM24 19C24.5523 19 25 18.5523 25 18C25 17.4477 24.5523 17 24 17V19ZM8 22C7.44772 22 7 22.4477 7 23C7 23.5523 7.44772 24 8 24V22ZM22 24C22.5523 24 23 23.5523 23 23C23 22.4477 22.5523 22 22 22V24ZM8 38C7.44772 38 7 38.4477 7 39C7 39.5523 7.44772 40 8 40V38ZM15 40C15.5523 40 16 39.5523 16 39C16 38.4477 15.5523 38 15 38V40ZM1 2H38V0H1V2ZM2 47V1H0V47H2ZM27 28C27 21.9249 31.9249 17 38 17V15C30.8203 15 25 20.8203 25 28H27ZM38 17C44.0751 17 49 21.9249 49 28H51C51 20.8203 45.1797 15 38 15V17ZM38 39C35.6041 39 33.3897 38.2352 31.584 36.9361L30.416 38.5597C32.5507 40.0953 35.1712 41 38 41V39ZM31.584 36.9361C28.8058 34.9376 27 31.6797 27 28H25C25 32.3504 27.1379 36.2015 30.416 38.5597L31.584 36.9361ZM49 28C49 31.6797 47.1942 34.9376 44.416 36.9361L45.584 38.5597C48.8621 36.2015 51 32.3504 51 28H49ZM44.416 36.9361C42.6103 38.2352 40.3959 39 38 39V41C40.8288 41 43.4493 40.0953 45.584 38.5597L44.416 36.9361ZM46 55V37.7479H44V55H46ZM31.5812 55.8137L38.5812 50.8137L37.4188 49.1863L30.4188 54.1863L31.5812 55.8137ZM37.4188 50.8137L44.4188 55.8137L45.5812 54.1863L38.5812 49.1863L37.4188 50.8137ZM37 1V16H39V1H37ZM30 37.7479V47H32V37.7479H30ZM30 47V55H32V47H30ZM1 48H31V46H1V48ZM33.2929 28.7071L36.2929 31.7071L37.7071 30.2929L34.7071 27.2929L33.2929 28.7071ZM37.7071 31.7071L43.7071 25.7071L42.2929 24.2929L36.2929 30.2929L37.7071 31.7071ZM8 9H25V7H8V9ZM8 14H25V12H8V14ZM8 19H24V17H8V19ZM8 24H22V22H8V24ZM8 40H15V38H8V40Z" fill="#FFCC00"/>
</svg>
