<svg width="212" height="39" viewBox="0 0 212 39" fill="none" xmlns="http://www.w3.org/2000/svg">
<path d="M55.6322 16.3816C57.5076 17.0458 58.9766 18.0896 60.0393 19.5128C61.102 20.9045 61.6334 22.5966 61.6334 24.5891C61.6334 27.4989 60.4769 29.7445 58.1639 31.3259C55.851 32.9073 52.5066 33.698 48.1307 33.698H32.1353C31.1816 33.698 30.4084 32.9249 30.4084 31.9711V2.2154C30.4084 1.26166 31.1816 0.488505 32.1353 0.488505H47.193C51.3813 0.488505 54.5695 1.27921 56.7574 2.86062C58.9453 4.41039 60.0393 6.51366 60.0393 9.17043C60.0393 10.7518 59.6486 12.1751 58.8672 13.4402C58.1171 14.6737 57.0387 15.6542 55.6322 16.3816ZM39.5977 7.27274V13.6774H45.974C49.0996 13.6774 50.6624 12.6021 50.6624 10.4514C50.6624 8.33228 49.0996 7.27274 45.974 7.27274H39.5977ZM47.3805 26.9138C50.6312 26.9138 52.2565 25.791 52.2565 23.5454C52.2565 21.2998 50.6312 20.177 47.3805 20.177H39.5977V26.9138H47.3805Z" fill="#282828"/>
<path d="M80.7882 25.0495H75.7247V32.1468C75.7247 33.1006 74.9515 33.8737 73.9978 33.8737H68.1685C67.2147 33.8737 66.4416 33.1006 66.4416 32.1468V2.39109C66.4416 1.43735 67.2147 0.66419 68.1685 0.66419H81.4446C84.4139 0.66419 86.9926 1.17024 89.1805 2.18234C91.3684 3.16281 93.0563 4.58608 94.244 6.45214C95.4317 8.28657 96.0256 10.4531 96.0256 12.9517C96.0256 15.3555 95.463 17.4587 94.3378 19.2615C93.2438 21.0327 91.6654 22.4243 89.6025 23.4364L95.3103 31.8515C95.8937 32.7115 95.2776 33.8737 94.2385 33.8737H87.6605C87.0865 33.8737 86.5501 33.5885 86.229 33.1127L80.7882 25.0495ZM86.6487 12.9517C86.6487 11.4019 86.1643 10.2001 85.1953 9.34611C84.2264 8.49215 82.7886 8.06517 80.882 8.06517H75.7247V17.7908H80.882C82.7886 17.7908 84.2264 17.3797 85.1953 16.5573C86.1643 15.7034 86.6487 14.5015 86.6487 12.9517Z" fill="#282828"/>
<path d="M123.136 27.4216H109.258L107.113 32.7877C106.851 33.4436 106.216 33.8737 105.51 33.8737H99.1867C98.2533 33.8737 97.6264 32.9162 97.9996 32.0607L111.244 1.70059C111.518 1.07112 112.14 0.66419 112.827 0.66419H119.709C120.395 0.66419 121.016 1.07025 121.291 1.69871L134.314 31.4545C134.813 32.5954 133.977 33.8737 132.732 33.8737H126.884C126.178 33.8737 125.542 33.4436 125.28 32.7877L123.136 27.4216ZM120.416 20.495L116.197 9.86797L111.977 20.495H120.416Z" fill="#282828"/>
<path d="M163.165 0.66419C164.092 0.66419 164.719 1.61046 164.357 2.46447L151.5 32.8203C151.23 33.4589 150.604 33.8737 149.91 33.8737H143.057C142.363 33.8737 141.736 33.458 141.466 32.8184L128.653 2.46304C128.292 1.60921 128.919 0.66419 129.846 0.66419H136.77C137.47 0.66419 138.101 1.0865 138.367 1.73357L146.835 22.2978L155.486 1.72179C155.755 1.08098 156.382 0.66419 157.078 0.66419H163.165Z" fill="#282828"/>
<path d="M183.133 34.5379C179.664 34.5379 176.538 33.7946 173.756 32.3081C171.006 30.8216 168.833 28.7658 167.239 26.1406C165.676 23.5155 164.895 20.5583 164.895 17.269C164.895 13.9796 165.676 11.0224 167.239 8.39727C168.833 5.77214 171.006 3.7163 173.756 2.22978C176.538 0.74326 179.664 0 183.133 0C186.603 0 189.713 0.74326 192.463 2.22978C195.245 3.7163 197.417 5.77214 198.98 8.39727C200.574 11.0224 201.371 13.9796 201.371 17.269C201.371 20.5583 200.574 23.5155 198.98 26.1406C197.417 28.7658 195.245 30.8216 192.463 32.3081C189.713 33.7946 186.603 34.5379 183.133 34.5379ZM183.133 26.7574C184.79 26.7574 186.29 26.362 187.634 25.5713C188.978 24.7806 190.041 23.6737 190.822 22.2504C191.604 20.7955 191.994 19.135 191.994 17.269C191.994 15.4029 191.604 13.7582 190.822 12.335C190.041 10.8801 188.978 9.75728 187.634 8.96657C186.29 8.17587 184.79 7.78052 183.133 7.78052C181.477 7.78052 179.976 8.17587 178.632 8.96657C177.288 9.75728 176.225 10.8801 175.444 12.335C174.663 13.7582 174.272 15.4029 174.272 17.269C174.272 19.135 174.663 20.7955 175.444 22.2504C176.225 23.6737 177.288 24.7806 178.632 25.5713C179.976 26.362 181.477 26.7574 183.133 26.7574Z" fill="#282828"/>
<path fill-rule="evenodd" clip-rule="evenodd" d="M206.552 10.3614C209.413 10.3614 211.732 8.0419 211.732 5.18069C211.732 2.31947 209.413 0 206.552 0C203.691 0 201.371 2.31947 201.371 5.18069C201.371 8.0419 203.691 10.3614 206.552 10.3614ZM206.657 6.07867L207.589 7.42565H208.791L207.707 5.87144C208.025 5.73329 208.269 5.53527 208.439 5.27739C208.614 5.0149 208.702 4.70406 208.702 4.34486C208.702 3.98567 208.616 3.67483 208.446 3.41234C208.276 3.14985 208.032 2.94723 207.714 2.80447C207.401 2.66172 207.03 2.59034 206.602 2.59034H204.509V7.42565H205.628V6.07867H206.602H206.657ZM207.306 3.72318C207.481 3.86594 207.569 4.07317 207.569 4.34486C207.569 4.61196 207.481 4.81918 207.306 4.96655C207.131 5.11391 206.876 5.18759 206.539 5.18759H205.628V3.50214H206.539C206.876 3.50214 207.131 3.57582 207.306 3.72318Z" fill="#282828"/>
<path d="M0.187729 2.59033C0.187729 1.63659 0.960887 0.863434 1.91462 0.863434H21.7739C22.7277 0.863434 23.5008 1.63659 23.5008 2.59033V31.9476C23.5008 32.9013 22.7277 33.6745 21.7739 33.6745H1.91463C0.960887 33.6745 0.187729 32.9013 0.187729 31.9476V2.59033Z" fill="#282828"/>
<path d="M7.09531 7.36202C7.09531 6.63852 7.54631 5.99172 8.22521 5.74161L21.1769 0.969919C22.3043 0.554556 23.5008 1.38885 23.5008 2.59034V32.4703C23.5008 33.1938 23.0498 33.8406 22.3709 34.0908L9.4192 38.8624C8.29179 39.2778 7.09531 38.4435 7.09531 37.242V7.36202Z" fill="#FFCC00"/>
</svg>
