<svg width="35" height="28" viewBox="0 0 35 28" fill="none" xmlns="http://www.w3.org/2000/svg">
<g clip-path="url(#clip0)">
<path d="M6.36487 27.4319V25.6364C6.36487 24.9563 5.94055 24.5074 5.22877 24.5074C4.87289 24.5074 4.47594 24.6298 4.20218 25.0107C3.99686 24.6842 3.69573 24.5074 3.24403 24.5074C2.94289 24.5074 2.64176 24.6026 2.40906 24.9291V24.5754H1.77942V27.4319H2.40906V25.854C2.40906 25.3507 2.68282 25.1059 3.09346 25.1059C3.5041 25.1059 3.7231 25.3779 3.7231 25.854V27.4319H4.35275V25.854C4.35275 25.3507 4.65388 25.1059 5.03714 25.1059C5.46147 25.1059 5.66679 25.3779 5.66679 25.854V27.4319H6.36487ZM15.7137 24.5618H14.6871V23.6913H14.0575V24.5618H13.4826V25.1331H14.0575V26.4525C14.0575 27.1054 14.3312 27.4999 15.043 27.4999C15.3168 27.4999 15.6179 27.4047 15.8232 27.2958L15.6453 26.7518C15.4673 26.8742 15.2483 26.9014 15.0978 26.9014C14.7966 26.9014 14.6734 26.7246 14.6734 26.4253V25.1467H15.7V24.5618H15.7137ZM21.0657 24.5074C20.7098 24.5074 20.4634 24.6842 20.3129 24.9291V24.5754H19.6832V27.4319H20.3129V25.8132C20.3129 25.3371 20.5182 25.0651 20.9151 25.0651C21.0383 25.0651 21.1889 25.0923 21.3121 25.1195L21.49 24.521C21.3668 24.5074 21.1889 24.5074 21.0657 24.5074ZM12.9761 24.8067C12.675 24.6026 12.2507 24.5074 11.799 24.5074C11.0735 24.5074 10.5944 24.8611 10.5944 25.4324C10.5944 25.9084 10.9503 26.1805 11.58 26.2621L11.8811 26.2893C12.2096 26.3437 12.3876 26.4389 12.3876 26.5885C12.3876 26.7926 12.1412 26.9422 11.7305 26.9422C11.3199 26.9422 10.9777 26.7926 10.7724 26.6429L10.4712 27.119C10.7998 27.3638 11.2515 27.4727 11.7032 27.4727C12.5381 27.4727 13.0309 27.0782 13.0309 26.5477C13.0309 26.0444 12.6339 25.7724 12.0454 25.6772L11.7442 25.65C11.4705 25.6228 11.2651 25.5548 11.2651 25.3779C11.2651 25.1739 11.4705 25.0515 11.8127 25.0515C12.1685 25.0515 12.5381 25.2011 12.7161 25.2963L12.9761 24.8067ZM29.7438 24.5074C29.3879 24.5074 29.1416 24.6842 28.991 24.9291V24.5754H28.3613V27.4319H28.991V25.8132C28.991 25.3371 29.1963 25.0651 29.5933 25.0651C29.7165 25.0651 29.867 25.0923 29.9902 25.1195L30.1682 24.521C30.045 24.5074 29.867 24.5074 29.7438 24.5074ZM21.6953 26.0036C21.6953 26.8742 22.2976 27.4999 23.2284 27.4999C23.6527 27.4999 23.9538 27.4047 24.255 27.1734L23.9538 26.6701C23.7075 26.847 23.4748 26.9422 23.201 26.9422C22.6946 26.9422 22.325 26.5885 22.325 26.0172C22.325 25.4732 22.6809 25.1195 23.201 25.0923C23.4748 25.0923 23.7075 25.1875 23.9538 25.3643L24.255 24.8611C23.9538 24.6162 23.6527 24.5346 23.2284 24.5346C22.2976 24.5074 21.6953 25.1331 21.6953 26.0036ZM27.5264 26.0036V24.5754H26.8967V24.9291C26.6914 24.657 26.3903 24.5074 25.9933 24.5074C25.1858 24.5074 24.5561 25.1331 24.5561 26.0036C24.5561 26.8742 25.1858 27.4999 25.9933 27.4999C26.4177 27.4999 26.7188 27.3502 26.8967 27.0782V27.4319H27.5264V26.0036ZM25.2131 26.0036C25.2131 25.5004 25.5416 25.0787 26.0892 25.0787C26.5956 25.0787 26.9652 25.4732 26.9652 26.0036C26.9652 26.5069 26.6093 26.9286 26.0892 26.9286C25.5416 26.9014 25.2131 26.5069 25.2131 26.0036ZM17.6711 24.5074C16.8361 24.5074 16.2339 25.1059 16.2339 26.0036C16.2339 26.9014 16.8361 27.4999 17.7122 27.4999C18.1365 27.4999 18.5471 27.3774 18.8893 27.1054L18.5882 26.6565C18.3418 26.8334 18.0407 26.9558 17.7532 26.9558C17.3563 26.9558 16.973 26.779 16.8772 26.2757H19.0125V26.0308C19.0262 25.1059 18.4787 24.5074 17.6711 24.5074ZM17.6711 25.0379C18.068 25.0379 18.3281 25.2827 18.3965 25.718H16.8909C16.9456 25.3371 17.2194 25.0379 17.6711 25.0379ZM33.3301 26.0036V23.4329H32.7004V24.9291C32.4951 24.657 32.194 24.5074 31.797 24.5074C30.9894 24.5074 30.3598 25.1331 30.3598 26.0036C30.3598 26.8742 30.9894 27.4999 31.797 27.4999C32.2213 27.4999 32.5225 27.3502 32.7004 27.0782V27.4319H33.3301V26.0036ZM31.0031 26.0036C31.0031 25.5004 31.3316 25.0787 31.8791 25.0787C32.3856 25.0787 32.7552 25.4732 32.7552 26.0036C32.7552 26.5069 32.3993 26.9286 31.8791 26.9286C31.3453 26.9014 31.0031 26.5069 31.0031 26.0036ZM9.91004 26.0036V24.5754H9.2804V24.9291C9.07508 24.657 8.77394 24.5074 8.37699 24.5074C7.56941 24.5074 6.93976 25.1331 6.93976 26.0036C6.93976 26.8742 7.56941 27.4999 8.37699 27.4999C8.80132 27.4999 9.10245 27.3502 9.2804 27.0782V27.4319H9.91004V26.0036ZM7.56941 26.0036C7.56941 25.5004 7.89792 25.0787 8.44543 25.0787C8.95189 25.0787 9.32146 25.4732 9.32146 26.0036C9.32146 26.5069 8.96557 26.9286 8.44543 26.9286C7.89792 26.9014 7.56941 26.5069 7.56941 26.0036Z" fill="black"/>
<path d="M22.2428 2.79883H12.7708V19.7061H22.2428V2.79883Z" fill="#FF5F00"/>
<path d="M13.3731 11.2456C13.3731 7.81788 15.002 4.77103 17.4932 2.79874C15.659 1.37053 13.3457 0.5 10.8135 0.5C4.83183 0.5 0 5.30151 0 11.2456C0 17.1897 4.83183 21.9912 10.8135 21.9912C13.332 21.9912 15.6453 21.1207 17.4795 19.6924C14.9883 17.761 13.3731 14.6869 13.3731 11.2456Z" fill="#EB001B"/>
<path d="M35 11.2456C35 17.1897 30.1681 21.9912 24.1865 21.9912C21.6679 21.9912 19.3547 21.1207 17.5205 19.6924C20.0391 17.7202 21.6406 14.6733 21.6406 11.2456C21.6406 7.81788 20.0117 4.77103 17.5205 2.79874C19.3547 1.37053 21.6679 0.5 24.1865 0.5C30.1681 0.5 35 5.34232 35 11.2456Z" fill="#F79E1B"/>
</g>
<defs>
<clipPath id="clip0">
<rect width="35" height="27" fill="white" transform="translate(0 0.5)"/>
</clipPath>
</defs>
</svg>
