<svg width="70" height="20" viewBox="0 0 70 20" fill="none" xmlns="http://www.w3.org/2000/svg">
<path d="M13.4894 3.21452C12.6898 2.31663 11.2444 1.93169 9.39545 1.93169H4.02907C3.84603 1.93159 3.66897 1.99586 3.52975 2.11293C3.39052 2.22999 3.29828 2.39217 3.26961 2.57028L1.03613 16.5331C1.02577 16.5979 1.02979 16.6641 1.04791 16.7272C1.06603 16.7903 1.09781 16.8488 1.14108 16.8986C1.18435 16.9485 1.23806 16.9884 1.29853 17.0159C1.35899 17.0433 1.42477 17.0574 1.49132 17.0574H4.80429L5.63636 11.8578L5.61056 12.0207C5.63868 11.8429 5.73031 11.6809 5.86894 11.5638C6.00757 11.4467 6.18409 11.3823 6.36668 11.3821H7.94101C11.0338 11.3821 13.4555 10.1444 14.1629 6.56417C14.1839 6.45829 14.202 6.35523 14.2178 6.25452C14.428 4.93123 14.2164 4.03052 13.4898 3.21499" fill="#003087"/>
<path d="M13.4894 3.21452C12.6898 2.31663 11.2444 1.93169 9.39545 1.93169H4.02907C3.84603 1.93159 3.66897 1.99586 3.52975 2.11293C3.39052 2.22999 3.29828 2.39217 3.26961 2.57028L1.03613 16.5331C1.02577 16.5979 1.02979 16.6641 1.04791 16.7272C1.06603 16.7903 1.09781 16.8488 1.14108 16.8986C1.18435 16.9485 1.23806 16.9884 1.29853 17.0159C1.35899 17.0433 1.42477 17.0574 1.49132 17.0574H4.80429L5.63636 11.8578L5.61056 12.0207C5.63868 11.8429 5.73031 11.6809 5.86894 11.5638C6.00757 11.4467 6.18409 11.3823 6.36668 11.3821H7.94101C11.0338 11.3821 13.4555 10.1444 14.1629 6.56417C14.1839 6.45829 14.202 6.35523 14.2178 6.25452C14.428 4.93123 14.2164 4.03052 13.4898 3.21499" fill="#003087"/>
<path d="M6.5301 6.27192C6.5552 6.11629 6.63578 5.97457 6.75737 5.8722C6.87897 5.76983 7.03361 5.7135 7.19355 5.71333H11.4007C11.8989 5.71333 12.3636 5.74533 12.7882 5.81215C13.0204 5.84895 13.2501 5.89955 13.4761 5.96368C13.7327 6.03476 13.981 6.13224 14.2169 6.2545C14.428 4.93074 14.2159 4.0305 13.4894 3.2145C12.6894 2.31708 11.2445 1.93214 9.39551 1.93214H4.02866C3.84578 1.93227 3.66895 1.99664 3.52993 2.11368C3.3909 2.23073 3.29879 2.39278 3.27015 2.57073L1.03571 16.5322C1.02529 16.5969 1.02924 16.6632 1.04729 16.7263C1.06535 16.7894 1.09708 16.8479 1.1403 16.8978C1.18353 16.9477 1.23721 16.9877 1.29765 17.0152C1.3581 17.0427 1.42387 17.0569 1.49043 17.0569H4.80388L5.63594 11.8569L6.5301 6.27192Z" fill="#003087"/>
<path d="M14.2174 6.25396C14.201 6.35749 14.1827 6.46073 14.1625 6.5636C13.4551 10.1434 11.0334 11.3815 7.94065 11.3815H6.36584C6.18328 11.3816 6.00678 11.4461 5.8682 11.5632C5.72963 11.6803 5.63813 11.8423 5.61021 12.0201L4.80393 17.0563L4.57466 18.485C4.56555 18.5418 4.56902 18.5998 4.58485 18.655C4.60068 18.7103 4.62849 18.7615 4.66636 18.8052C4.70422 18.8488 4.75125 18.8839 4.80419 18.9079C4.85713 18.9319 4.91473 18.9444 4.97302 18.9443H7.76583C8.09637 18.9443 8.37722 18.7072 8.42929 18.3857L8.45651 18.2455L8.98288 14.9589L9.01632 14.7773C9.04134 14.6215 9.12196 14.4797 9.24367 14.3773C9.36539 14.2749 9.5202 14.2186 9.68025 14.2187H10.0982C12.8036 14.2187 14.922 13.1363 15.541 10.0041C15.7989 8.69584 15.6652 7.60267 14.9821 6.83513C14.7653 6.59718 14.5061 6.40022 14.2174 6.25396Z" fill="#009CDE"/>
<path d="M13.4766 5.96353C13.3687 5.932 13.2574 5.90377 13.1427 5.87883C13.0281 5.85388 12.9096 5.83177 12.7883 5.81294C12.3632 5.74471 11.8989 5.71271 11.4003 5.71271H7.19363C7.03351 5.71251 6.87861 5.76877 6.75693 5.87131C6.63524 5.97385 6.55481 6.11589 6.53018 6.27177L5.63602 11.8577L5.61023 12.02C5.63815 11.8423 5.72966 11.6802 5.86823 11.5631C6.0068 11.446 6.1833 11.3816 6.36587 11.3814H7.94067C11.0334 11.3814 13.4551 10.1438 14.1625 6.56353C14.1835 6.45765 14.2012 6.35506 14.2174 6.25389C14.0306 6.15758 13.836 6.07667 13.6357 6.012C13.5836 5.99506 13.5306 5.97906 13.4766 5.96306" fill="#012169"/>
<path fill-rule="evenodd" clip-rule="evenodd" d="M23.6732 6.43994H27.3779C28.6174 6.43994 29.5517 6.76229 30.0785 7.37218C30.5576 7.927 30.7166 8.71948 30.5509 9.72748C30.1831 12.0338 28.775 13.1971 26.3342 13.1971H25.1621C24.9089 13.1971 24.693 13.3788 24.6539 13.6254L24.2493 16.1501C24.2096 16.3967 23.9942 16.5783 23.7411 16.5783H21.9719C21.9273 16.5783 21.8832 16.5688 21.8427 16.5504C21.8022 16.532 21.7662 16.5052 21.7373 16.4718C21.7083 16.4383 21.687 16.3991 21.6749 16.3568C21.6628 16.3146 21.6602 16.2702 21.6671 16.2268L23.1646 6.86818C23.2042 6.62159 23.4201 6.43994 23.6732 6.43994ZM25.6049 11.1684C26.5874 11.1684 27.6029 11.1684 27.8054 9.8583C27.8789 9.39854 27.8202 9.06536 27.6253 8.84089C27.2996 8.46583 26.6681 8.46583 25.9994 8.46583H25.7429C25.591 8.46583 25.462 8.57453 25.4382 8.7223L25.046 11.1684H25.6049Z" fill="#009CDE"/>
<path fill-rule="evenodd" clip-rule="evenodd" d="M36.6772 9.81595H38.4512C38.4959 9.8159 38.5395 9.82585 38.5801 9.84421C38.6207 9.86258 38.6567 9.88939 38.6858 9.92279C38.7148 9.9562 38.7362 9.99542 38.7484 10.0377C38.7606 10.0801 38.7633 10.1245 38.7564 10.168L37.7973 16.1506C37.7577 16.3976 37.5418 16.5788 37.2886 16.5788H35.6914C35.6467 16.5789 35.6026 16.5694 35.562 16.551C35.5215 16.5326 35.4854 16.5058 35.4564 16.4724C35.4274 16.439 35.4061 16.3998 35.394 16.3574C35.3818 16.3151 35.3792 16.2707 35.3861 16.2273L35.4654 15.7416C35.4654 15.7416 34.5894 16.7411 33.0094 16.7411C32.0889 16.7411 31.3166 16.48 30.7754 15.8527C30.186 15.1698 29.9452 14.1915 30.1148 13.167C30.4406 11.1152 32.1147 9.65171 34.0745 9.65171C34.9295 9.65171 35.7859 9.83571 36.17 10.3849L36.2941 10.5618L36.3715 10.0734C36.3829 10.0016 36.42 9.93617 36.4761 9.88897C36.5321 9.84176 36.6035 9.81586 36.6772 9.81595ZM33.9766 14.8875C35.0031 14.8875 35.8069 14.2169 35.9789 13.2183C36.0568 12.735 35.9498 12.2964 35.678 11.9825C35.4076 11.671 34.9992 11.5063 34.4953 11.5063C33.4846 11.5063 32.6669 12.1981 32.5074 13.1882C32.4242 13.6734 32.5226 14.1096 32.7853 14.4155C33.05 14.7242 33.4622 14.8875 33.9766 14.8875Z" fill="#009CDE"/>
<path d="M46.116 9.81645H47.8996C47.9559 9.81647 48.0112 9.8317 48.0594 9.86049C48.1076 9.88928 48.1469 9.93052 48.173 9.97974C48.199 10.029 48.211 10.0843 48.2074 10.1397C48.2038 10.1951 48.1849 10.2485 48.1527 10.2941L42.2232 18.7261C42.1267 18.8626 41.9686 18.944 41.8005 18.944H40.0189C39.9622 18.9439 39.9067 18.9286 39.8584 18.8996C39.8101 18.8706 39.7707 18.829 39.7447 18.7795C39.7187 18.73 39.707 18.6744 39.7108 18.6187C39.7147 18.5631 39.734 18.5096 39.7667 18.464L41.6132 15.8969L39.6501 10.2188C39.6342 10.173 39.6297 10.1241 39.6368 10.0762C39.644 10.0283 39.6626 9.98276 39.6912 9.94337C39.7198 9.90399 39.7575 9.87189 39.8012 9.84973C39.8449 9.82758 39.8933 9.81601 39.9424 9.81598H41.6949C41.8058 9.81614 41.9136 9.85147 42.0025 9.91673C42.0913 9.982 42.1565 10.0737 42.1883 10.1783L43.231 13.608L45.6909 10.039C45.7864 9.89975 45.9455 9.81645 46.116 9.81645Z" fill="#009CDE"/>
<path fill-rule="evenodd" clip-rule="evenodd" d="M53.8014 6.44004H50.0967C49.974 6.4401 49.8554 6.48324 49.7621 6.56173C49.6688 6.64021 49.6069 6.7489 49.5876 6.86827L48.0906 16.2269C48.0837 16.2703 48.0864 16.3146 48.0986 16.3569C48.1107 16.3991 48.132 16.4383 48.161 16.4717C48.1899 16.5051 48.2258 16.5319 48.2663 16.5503C48.3068 16.5687 48.3508 16.5783 48.3954 16.5784H50.2964C50.4736 16.5784 50.6245 16.4514 50.6523 16.2791L51.0774 13.625C51.1165 13.3789 51.3324 13.1968 51.5856 13.1968H52.7577C55.1985 13.1968 56.6066 12.0339 56.9744 9.72757C57.1401 8.71957 56.9811 7.9271 56.502 7.37227C55.9752 6.76239 55.0409 6.44004 53.8014 6.44004ZM54.2289 9.8584C54.0264 11.1685 53.0109 11.1685 52.0288 11.1685H51.47L51.8621 8.72239C51.886 8.57463 52.015 8.46592 52.1669 8.46592H52.4234C53.0921 8.46592 53.7235 8.46592 54.0493 8.84098C54.2437 9.06545 54.3024 9.39863 54.2289 9.8584Z" fill="#009CDE"/>
<path fill-rule="evenodd" clip-rule="evenodd" d="M64.8747 9.81595H63.1007C63.0269 9.81586 62.9556 9.84176 62.8995 9.88897C62.8435 9.93618 62.8064 10.0016 62.795 10.0734L62.7176 10.5618L62.5934 10.3849C62.2094 9.83572 61.353 9.65172 60.498 9.65172C58.5387 9.65172 56.8645 11.1152 56.5383 13.167C56.3687 14.1915 56.6099 15.1698 57.1993 15.8527C57.7405 16.48 58.5129 16.7411 59.4333 16.7411C61.0138 16.7411 61.8898 15.7416 61.8898 15.7416L61.8106 16.2273C61.8034 16.2706 61.806 16.315 61.818 16.3574C61.83 16.3997 61.8512 16.4389 61.8801 16.4724C61.9091 16.5058 61.9451 16.5327 61.9856 16.551C62.0261 16.5694 62.0702 16.5789 62.1148 16.5788H63.7116C63.9648 16.5788 64.1807 16.3976 64.2208 16.1506L65.1799 10.168C65.1868 10.1245 65.1841 10.0801 65.1719 10.0377C65.1597 9.99542 65.1383 9.95621 65.1093 9.9228C65.0802 9.88939 65.0441 9.86258 65.0036 9.84421C64.963 9.82585 64.9193 9.8159 64.8747 9.81595ZM62.4024 13.2183C62.2304 14.2169 61.4265 14.8875 60.4001 14.8875C59.8856 14.8875 59.4734 14.7242 59.2088 14.4155C58.9461 14.1096 58.8477 13.6734 58.9308 13.1882C59.0904 12.1981 59.9076 11.5063 60.9188 11.5063C61.4227 11.5063 61.8311 11.671 62.1015 11.9825C62.3732 12.2964 62.4802 12.735 62.4024 13.2183Z" fill="#009CDE"/>
<path d="M65.4445 16.2274L66.9653 6.69751C66.9766 6.62581 67.0136 6.56 67.0696 6.51286C67.1256 6.46573 67.1969 6.43991 67.2706 6.4401H68.9815C69.0261 6.44003 69.0703 6.44951 69.1108 6.46788C69.1514 6.48625 69.1874 6.51306 69.2164 6.54648C69.2454 6.5799 69.2667 6.61913 69.2789 6.66145C69.291 6.70377 69.2937 6.74819 69.2867 6.79162L67.7874 16.1507C67.7477 16.3973 67.5318 16.5789 67.2787 16.5789H65.7497C65.7051 16.5789 65.661 16.5694 65.6205 16.551C65.58 16.5326 65.544 16.5058 65.515 16.4724C65.486 16.439 65.4647 16.3998 65.4525 16.3575C65.4403 16.3152 65.4376 16.2708 65.4445 16.2274Z" fill="#009CDE"/>
</svg>
