<svg width="70" height="8" viewBox="0 0 70 8" fill="none" xmlns="http://www.w3.org/2000/svg">
<path d="M0.698163 0.0948135C0.426247 0.216227 0.183727 0.466196 0.0808399 0.730448C0.0293963 0.866146 0 2.13742 0 4.4657V7.99383H1.69029V5.77982H3.93911L4.52704 6.88682L5.10761 7.99383H6.08504C6.61418 7.99383 7.05512 7.9724 7.05512 7.95097C7.05512 7.92241 6.75381 7.33677 6.37901 6.65114L5.71024 5.39415L5.88662 5.28702C6.87874 4.65139 7.31969 3.40154 7.05512 1.97315C6.88609 1.10183 6.4525 0.487622 5.78373 0.201943C5.40893 0.0376778 5.34278 0.0305359 3.16011 0.0162519C1.39633 0.00196799 0.874541 0.0162519 0.698163 0.0948135ZM4.96063 1.7089C5.07822 1.75175 5.1958 1.8803 5.26194 2.04457C5.40158 2.36596 5.41628 3.18728 5.29134 3.43011C4.97533 4.02289 4.58583 4.13717 2.92494 4.13717H1.69029V1.63748H3.22625C4.07139 1.63748 4.8504 1.66605 4.96063 1.7089ZM9.55381 0.0591037C8.82625 0.273363 8.30447 0.780442 8.08399 1.47321C7.90761 2.03029 7.71654 3.34441 7.71654 3.98004C7.71654 4.59425 7.89292 5.8441 8.04725 6.35117C8.31916 7.22964 8.78216 7.67958 9.63465 7.89384C10.0021 7.98668 10.3916 8.00097 11.641 7.97954C13.074 7.95812 13.221 7.93669 13.5811 7.78671C14.6173 7.33677 15.0656 6.19405 15.0656 3.99433C15.0583 1.68033 14.5953 0.537615 13.5003 0.144807C13.1108 0.00910996 12.9417 -0.00517398 11.4058 0.00196799C10.4871 0.00196799 9.6567 0.0305358 9.55381 0.0591037ZM12.9711 1.80174C13.4635 2.4588 13.4562 5.69411 12.9564 6.17263C12.8095 6.32261 9.98006 6.32975 9.85512 6.18691C9.50972 5.77982 9.38478 3.43011 9.64935 2.33025C9.75958 1.89459 9.81838 1.75889 9.94331 1.7089C10.0315 1.67319 10.7297 1.65176 11.4866 1.6589C12.7286 1.67319 12.8829 1.68747 12.9711 1.80174ZM16.653 0.151949C16.4913 0.244795 16.2929 0.430486 16.2121 0.566183C16.0651 0.80901 16.0577 0.937565 16.0357 3.79435C16.021 5.78696 16.0431 6.8654 16.0945 7.06537C16.2194 7.50817 16.5428 7.82956 16.9837 7.91527C17.4394 8.01525 20.6803 8.01525 21.2609 7.92241C22.3927 7.74386 22.9732 7.10108 23.0541 5.92266C23.1055 5.25845 22.9953 4.76566 22.7087 4.32286L22.4955 4.00147L22.7675 3.48725C23.032 2.99445 23.0394 2.94446 23.0394 2.25169C23.0394 1.6589 23.0026 1.46607 22.8703 1.17325C22.6572 0.723306 22.4 0.459054 21.937 0.223369L21.5696 0.0305358L19.2546 0.00910995C16.9617 -0.00517398 16.9396 -0.00517397 16.653 0.151949ZM21.2021 1.72318C21.305 1.82317 21.3711 2.30168 21.305 2.52308C21.2683 2.65164 21.1507 2.83019 21.0478 2.93017C20.864 3.10158 20.8347 3.10158 19.3207 3.12301L17.7848 3.14443V1.63034L19.4677 1.65176C20.3937 1.66605 21.1727 1.69461 21.2021 1.72318ZM20.8787 4.9085C21.1727 5.02277 21.3344 5.32987 21.327 5.73697C21.3197 5.99408 21.2829 6.12263 21.1948 6.18691C21.0992 6.25833 20.6362 6.27976 19.4236 6.27976H17.7848V4.76566L19.2399 4.79423C20.0336 4.81565 20.7759 4.86565 20.8787 4.9085ZM25.516 0.144807C24.8032 0.416202 24.4431 0.901856 24.1638 1.97315C24.0242 2.51594 24.0021 2.80162 24.0021 3.99433C24.0021 5.29416 24.0168 5.437 24.2005 6.10121C24.4284 6.90825 24.6415 7.2582 25.0677 7.56531C25.5969 7.92955 25.7585 7.95812 27.6326 7.95812C29.5066 7.95812 29.6683 7.92955 30.1974 7.56531C30.6236 7.2582 30.8368 6.90825 31.0646 6.10121C31.2483 5.437 31.263 5.29416 31.263 3.99433C31.263 2.80162 31.241 2.51594 31.1013 1.97315C30.8221 0.887572 30.462 0.40906 29.727 0.144807C29.3522 0.00910996 29.1685 -0.00517398 27.6105 0.00196799C26.0746 0.00196799 25.8688 0.0162519 25.516 0.144807ZM29.0583 1.7089C29.2567 1.78032 29.3449 2.00172 29.4845 2.80876C29.6609 3.80149 29.5066 5.67269 29.2126 6.10835C29.1024 6.27976 29.095 6.27976 27.6326 6.27976C25.9129 6.27976 26.0158 6.32975 25.8247 5.37987C25.5528 4.06575 25.7732 1.87316 26.1848 1.7089C26.4053 1.62319 28.8231 1.62319 29.0583 1.7089Z" fill="black"/>
<path d="M32.6375 0.292251L32.4097 0.513652V7.5842L32.6228 7.79131C32.8139 7.96986 32.8947 7.99843 33.2695 7.99843C33.6296 7.99843 33.7325 7.96986 33.8648 7.83417C34.122 7.56991 34.1734 7.26281 34.1734 6.02011V4.85597H35.2538L35.7976 5.31305C36.8853 6.22008 37.2601 6.70574 37.2601 7.19139C37.2601 7.46278 37.2968 7.54849 37.5099 7.7556C37.7304 7.96986 37.8039 7.99843 38.1346 7.99843C38.4433 7.99843 38.5462 7.96272 38.7446 7.79131C38.9798 7.59134 38.9871 7.56277 38.9797 7.04141C38.9724 6.59146 38.9357 6.4272 38.7446 6.04868C38.4874 5.54874 37.7378 4.65599 37.2674 4.29175L36.9588 4.05607L37.4364 3.63469C38.0097 3.12047 38.5388 2.45627 38.7887 1.9349C38.9283 1.63494 38.9724 1.42068 38.9797 1.02073C38.9871 0.506511 38.9798 0.477942 38.7446 0.277967C38.5315 0.0922763 38.4506 0.0708504 38.0391 0.0708504C37.6128 0.0708504 37.5467 0.0922763 37.4144 0.256541C37.3115 0.385097 37.2601 0.549362 37.2601 0.763621C37.2601 0.935029 37.216 1.17786 37.1572 1.30641C37.0322 1.60637 36.4737 2.19916 35.7976 2.76337L35.2538 3.21332H34.1734V2.04918C34.1734 1.41354 34.1367 0.770763 34.1 0.627924C33.9897 0.242258 33.7252 0.0708504 33.2475 0.0708504C32.9168 0.0708504 32.8286 0.0994183 32.6375 0.292251ZM41.9929 0.170838C41.0007 0.477942 40.4569 1.16357 40.0748 2.5634C39.8984 3.19189 39.8837 3.40615 39.8543 5.22021C39.8102 7.3628 39.8396 7.59848 40.1777 7.85559C40.4202 8.04128 41.0448 8.04842 41.2727 7.86988C41.5372 7.66276 41.596 7.46278 41.596 6.72002V5.99868H45.4175V6.79144C45.4175 7.56991 45.4175 7.5842 45.6307 7.79131C45.8217 7.96986 45.9026 7.99843 46.2627 7.99843C46.6375 7.99843 46.7036 7.97701 46.9021 7.76989L47.1152 7.54135L47.0931 5.25592C47.0637 3.1419 47.049 2.92049 46.9021 2.44198C46.5493 1.31355 46.0349 0.606498 45.3441 0.292251C44.9619 0.120844 44.859 0.10656 43.617 0.0922763C42.6763 0.0779924 42.206 0.0994183 41.9929 0.170838ZM44.5283 1.79206C44.9325 1.92776 45.2779 2.79194 45.3735 3.87038L45.4102 4.35603H41.574L41.6254 3.78467C41.7136 2.77766 42.1178 1.83492 42.4926 1.7635C42.8527 1.69922 44.3078 1.72064 44.5283 1.79206ZM49.4228 0.170838C48.7026 0.392239 48.2984 0.735054 48.0485 1.3564C47.9236 1.67065 47.8868 1.89919 47.8868 2.46341C47.8868 3.60612 48.2396 4.25604 49.07 4.64885C49.4007 4.80597 49.533 4.82026 50.9808 4.85597C52.48 4.89168 52.5462 4.89882 52.7078 5.05594C52.921 5.26306 52.943 5.87013 52.7446 6.16295L52.6196 6.35578H50.6427C48.7761 6.35578 48.6585 6.36292 48.4821 6.49862C48.0706 6.81287 48.0559 7.49849 48.4454 7.81988L48.6658 7.99843H50.8044C51.995 7.99843 53.0679 7.96272 53.2149 7.92701C53.6191 7.81988 54.0527 7.40565 54.3246 6.87C54.5525 6.42006 54.5672 6.35578 54.5672 5.60587C54.5672 4.90596 54.5451 4.77741 54.3761 4.42745C54.1336 3.92751 53.8028 3.55613 53.4427 3.38472C53.2076 3.27045 52.9357 3.24188 51.4952 3.21332C49.5477 3.17046 49.6065 3.19903 49.6065 2.46341C49.6065 1.72064 49.4963 1.75635 51.8406 1.7135L53.869 1.67779L54.0674 1.48496C54.2438 1.31355 54.2658 1.22785 54.2952 0.685059L54.332 0.0708504L52.0244 0.0779924C50.3782 0.0779924 49.6359 0.10656 49.4228 0.170838ZM56.6984 0.170838C56.5367 0.220832 56.3089 0.313677 56.184 0.370813C55.2359 0.856467 54.8391 2.48483 55.3829 3.64183C55.6107 4.12749 55.8606 4.3846 56.3309 4.62742C56.6837 4.81312 56.7425 4.82026 58.1682 4.84168C58.9766 4.84882 59.7262 4.89882 59.8364 4.93453C60.0937 5.03452 60.2186 5.39876 60.1525 5.82727C60.0716 6.37006 60.1304 6.35578 57.9036 6.35578H55.912L55.6989 6.5629C55.5152 6.74859 55.4858 6.82715 55.4858 7.17711C55.4858 7.52706 55.5152 7.60562 55.6989 7.79131L55.912 7.99843H58.1315C60.6008 7.99843 60.6595 7.99129 61.174 7.51278C61.6223 7.0914 61.828 6.59146 61.8648 5.77014C61.9089 4.82026 61.7252 4.26318 61.1813 3.74182C60.9388 3.50614 60.6963 3.34187 60.5126 3.29188C60.3509 3.24903 59.616 3.21332 58.859 3.21332C58.1021 3.21332 57.3892 3.19189 57.2643 3.17046C56.9997 3.12047 56.8821 2.89907 56.8821 2.46341C56.8821 2.02775 56.9997 1.80635 57.2643 1.75635C57.3892 1.73493 58.2784 1.7135 59.2485 1.7135C61.5341 1.7135 61.5855 1.68493 61.5855 0.606498V0.0708504L59.2926 0.0779924C57.6538 0.0779924 56.9042 0.10656 56.6984 0.170838ZM64.753 0.21369C64.5399 0.285109 64.2459 0.435091 64.1063 0.54222C63.5183 0.97788 62.9892 2.12059 62.8422 3.28473C62.732 4.09892 62.7393 7.26995 62.8422 7.56277C62.9451 7.84131 63.2391 7.99843 63.6727 7.99843C63.9372 7.99843 64.0548 7.95558 64.2459 7.79131L64.4884 7.5842L64.5105 6.79144L64.5399 5.99868H68.2585L68.2879 6.79144L68.3099 7.5842L68.5525 7.79131C68.7435 7.96272 68.8538 7.99843 69.1551 7.99843C69.4564 7.99843 69.5666 7.96272 69.7577 7.79131L70.0002 7.5842L69.9929 5.34162C69.9855 3.29188 69.9782 3.06333 69.8312 2.54911C69.5005 1.37069 69.0081 0.656492 68.2952 0.313677C67.8763 0.113702 67.8396 0.10656 66.5094 0.0922763C65.3115 0.0708504 65.1057 0.0851343 64.753 0.21369ZM67.6926 1.99918C67.9866 2.33485 68.2071 3.04905 68.2512 3.76325L68.2952 4.35603H64.5252V3.92037C64.5252 3.01334 64.9367 1.95633 65.3483 1.78492C65.4438 1.74921 65.9582 1.72779 66.5021 1.73493L67.4795 1.74921L67.6926 1.99918Z" fill="black"/>
</svg>
