<svg width="48" height="16" viewBox="0 0 48 16" fill="none" xmlns="http://www.w3.org/2000/svg">
<g clip-path="url(#clip0)">
<path d="M31.4133 0.5C32.9066 0.5 34.1333 0.826087 34.9066 1.09783L34.3733 4.25L34.0266 4.08696C33.3333 3.78804 32.4 3.48913 31.12 3.5163C29.6266 3.5163 28.9067 4.1413 28.9067 4.7663C28.9067 5.44565 29.7333 5.90761 31.0933 6.55978C33.3333 7.59239 34.3733 8.86957 34.3467 10.5C34.2933 13.5163 31.6533 15.4728 27.5733 15.4728C25.84 15.4457 24.16 15.0924 23.2533 14.6848L23.7867 11.4239L24.2933 11.6685C25.5733 12.212 26.4 12.4293 27.9467 12.4293C29.0667 12.4293 30.2666 11.9946 30.2666 11.0163C30.2933 10.3913 29.7866 9.95652 28.2667 9.22283C26.7733 8.54348 24.8267 7.375 24.8533 5.28261C24.8533 2.45652 27.5466 0.5 31.4133 0.5Z" fill="#0058A0"/>
<path d="M19.3333 0.744549L16.9067 15.2826H20.8L23.2267 0.744549H19.3333Z" fill="#0058A0"/>
<path fill-rule="evenodd" clip-rule="evenodd" d="M44.88 0.771779H41.8667C40.9333 0.771779 40.24 1.04352 39.8133 1.96743L34.0533 15.3098H38.1333C38.1333 15.3098 38.8 13.5163 38.96 13.1359H43.9467C44.0533 13.625 44.4267 15.3098 44.4267 15.3098H48L44.88 0.771779ZM40.08 10.1196C40.4 9.30439 41.6267 6.07069 41.6267 6.07069C41.6138 6.08378 41.6876 5.88884 41.7884 5.6225C41.8968 5.33586 42.0366 4.96654 42.1333 4.68482L42.4 5.93482C42.4 5.93482 43.1467 9.41308 43.3067 10.1196H40.08Z" fill="#0058A0"/>
<path d="M9.84001 10.6631L13.6533 0.771779H17.76L11.6533 15.2826H7.54668L4.05334 2.56526C6.50668 3.81526 8.72001 6.31526 9.44001 8.65221L9.84001 10.6631Z" fill="#0058A0"/>
<path fill-rule="evenodd" clip-rule="evenodd" d="M6.32 0.744629H0.0266667L0 1.07072C4.85333 2.26637 8.10667 5.17398 9.44 8.67941L8.05333 1.99463C7.84 1.07072 7.17333 0.771803 6.32 0.744629Z" fill="#FAA61A"/>
</g>
<defs>
<clipPath id="clip0">
<rect width="48" height="15" fill="white" transform="translate(0 0.5)"/>
</clipPath>
</defs>
</svg>
