<svg width="24" height="30" viewBox="0 0 24 30" fill="none" xmlns="http://www.w3.org/2000/svg">
<path d="M0 14.8867C0 13.2039 0.145283 12.1359 3.76617 9.52535C6.75006 7.36785 16.3499 0 16.3499 0V12.2977H24V30H2.27982C1.02815 30 0 29.0076 0 27.7994V14.8867Z" fill="#FFCF01"/>
<path d="M16.3499 12.2976V19.4281L2.93921 28.2415L19.8926 22.9233V12.2976H16.3499Z" fill="#D3AB07"/>
<path d="M10.2146 11.9309C10.9969 11.0247 12.148 10.7119 12.7738 11.2189C13.3997 11.7259 13.2767 12.8694 12.4944 13.7755C11.7121 14.6817 10.5611 14.9945 9.93523 14.4875C9.3094 13.9805 9.43233 12.837 10.2146 11.9309Z" fill="black"/>
</svg>
